<?xml version="1.0" standalone="no"?>
<!DOCTYPE svg PUBLIC "-//W3C//DTD SVG 20010904//EN"
 "http://www.w3.org/TR/2001/REC-SVG-20010904/DTD/svg10.dtd">
<svg version="1.0" xmlns="http://www.w3.org/2000/svg"
 width="512.000000pt" height="512.000000pt" viewBox="0 0 512.000000 512.000000"
 preserveAspectRatio="xMidYMid meet">
<metadata>
Created by potrace 1.11, written by Peter Selinger 2001-2013
</metadata>
<g transform="translate(0.000000,512.000000) scale(0.100000,-0.100000)"
fill="#000000" stroke="none">
<path d="M2400 5018 c-85 -50 -175 -102 -200 -116 -25 -13 -49 -28 -55 -32 -5
-4 -26 -17 -45 -28 -19 -11 -210 -122 -425 -247 -214 -125 -404 -236 -421
-245 -17 -10 -152 -89 -300 -175 -148 -87 -334 -196 -414 -242 -80 -47 -150
-89 -156 -94 -13 -11 -17 -2469 -4 -2469 6 0 52 26 273 154 18 10 91 52 162
94 72 41 144 83 160 92 77 44 444 256 569 328 121 70 166 88 166 63 0 -3 15
-24 34 -46 19 -22 34 -40 33 -41 -3 -3 -170 -100 -207 -121 -19 -11 -91 -53
-160 -93 -69 -40 -210 -122 -315 -182 -104 -60 -197 -114 -205 -119 -8 -5
-109 -63 -225 -130 -115 -66 -214 -124 -218 -129 -7 -6 177 -118 513 -312 52
-30 190 -110 305 -178 116 -68 230 -134 255 -148 25 -14 62 -36 83 -49 22 -14
58 -35 80 -48 23 -13 224 -130 447 -260 223 -130 417 -239 431 -242 18 -3 40
3 67 21 23 14 44 26 47 26 3 0 18 8 33 19 15 10 88 53 162 96 74 43 155 90
180 105 25 15 79 46 120 70 41 24 95 56 120 71 25 15 61 36 80 47 61 34 150
86 302 175 81 48 152 87 158 87 5 0 10 3 10 8 0 4 10 12 23 18 12 6 117 66
232 134 116 67 230 134 255 148 39 22 172 100 365 214 l50 29 0 1230 c0 676
-4 1229 -8 1229 -7 0 -100 -53 -227 -129 -19 -11 -42 -24 -50 -28 -8 -4 -59
-33 -113 -65 -54 -32 -100 -58 -102 -58 -1 0 -44 -25 -94 -55 -51 -30 -96 -55
-101 -55 -6 0 -10 -4 -10 -9 0 -5 -8 -11 -17 -14 -10 -3 -40 -19 -68 -36 -68
-41 -115 -64 -119 -60 -2 2 -7 22 -11 44 -4 22 -9 52 -11 66 -4 22 3 30 46 57
28 18 53 32 56 32 2 0 37 20 77 43 39 24 212 124 382 222 171 98 311 179 312
180 2 1 -212 129 -266 159 -12 6 -116 67 -233 136 -117 69 -222 130 -233 136
-21 11 -229 133 -460 269 -77 46 -158 93 -180 105 -22 12 -158 92 -302 176
-145 85 -267 154 -273 154 -5 0 -10 5 -10 10 0 6 -4 10 -10 10 -5 0 -43 20
-83 45 -41 25 -81 45 -88 45 -8 0 -84 -42 -169 -92z"/>
</g>
</svg>
